<svg width="512" height="512" viewBox="0 0 512 512" fill="none" xmlns="http://www.w3.org/2000/svg">
<g clip-path="url(#clip0_25_3)">
<path d="M512 256C512 397.385 397.385 512 256 512C114.615 512 0 397.385 0 256C0 114.615 114.615 0 256 0C397.385 0 512 114.615 512 256ZM140.8 256C140.8 319.623 192.377 371.2 256 371.2C319.623 371.2 371.2 319.623 371.2 256C371.2 192.377 319.623 140.8 256 140.8C192.377 140.8 140.8 192.377 140.8 256Z" fill="black"/>
<g filter="url(#filter0_dii_25_3)">
<circle cx="256" cy="256" r="116" fill="#D9D9D9"/>
<mask id="path-3-outside-1_25_3" maskUnits="userSpaceOnUse" x="210" y="185" width="92" height="131" fill="black">
<rect fill="white" x="210" y="185" width="92" height="131"/>
<path d="M272.555 241.45C275.155 241.45 277.855 242 280.655 243.1C283.455 244.2 286.155 245.65 288.755 247.45H288.605C291.205 249.25 293.205 251.7 294.605 254.8C296.005 257.9 296.705 261.45 296.705 265.45V286C296.705 294.1 294.005 300.15 288.605 304.15C286.005 306.05 283.305 307.55 280.505 308.65C277.805 309.65 275.155 310.15 272.555 310.15H239.855C237.255 310.15 234.555 309.65 231.755 308.65C229.055 307.55 226.405 306.05 223.805 304.15C218.405 300.15 215.705 294.1 215.705 286V276.1C215.705 271.4 218.655 269.05 224.555 269.05C230.555 269.05 233.555 271.4 233.555 276.1V284.8C233.555 287.4 234.305 289.75 235.805 291.85C237.305 293.95 239.905 295 243.605 295H268.805C272.505 295 275.105 293.95 276.605 291.85C278.105 289.75 278.855 287.4 278.855 284.8V266.65C278.855 264.15 278.105 261.85 276.605 259.75C275.105 257.55 272.505 256.45 268.805 256.45H239.855C234.655 256.45 229.305 254.55 223.805 250.75C218.405 246.55 215.705 240.5 215.705 232.6V214.75C215.705 210.75 216.405 207.25 217.805 204.25C219.205 201.15 221.205 198.65 223.805 196.75H223.655C226.255 195.05 228.955 193.65 231.755 192.55C234.555 191.45 237.255 190.9 239.855 190.9H272.555C275.155 190.9 277.855 191.45 280.655 192.55C283.455 193.65 286.155 195.05 288.755 196.75H288.605C291.205 198.65 293.205 201.15 294.605 204.25C296.005 207.25 296.705 210.75 296.705 214.75V223.6C296.705 228.3 293.705 230.65 287.705 230.65C281.805 230.65 278.855 228.3 278.855 223.6V216.1C278.855 213.6 278.105 211.3 276.605 209.2C275.105 207.1 272.505 206.05 268.805 206.05H243.605C239.905 206.05 237.305 207.1 235.805 209.2C234.305 211.3 233.555 213.6 233.555 216.1V231.4C233.555 234 234.305 236.35 235.805 238.45C237.305 240.45 239.905 241.45 243.605 241.45H272.555Z"/>
</mask>
<path d="M272.555 241.45C275.155 241.45 277.855 242 280.655 243.1C283.455 244.2 286.155 245.65 288.755 247.45H288.605C291.205 249.25 293.205 251.7 294.605 254.8C296.005 257.9 296.705 261.45 296.705 265.45V286C296.705 294.1 294.005 300.15 288.605 304.15C286.005 306.05 283.305 307.55 280.505 308.65C277.805 309.65 275.155 310.15 272.555 310.15H239.855C237.255 310.15 234.555 309.65 231.755 308.65C229.055 307.55 226.405 306.05 223.805 304.15C218.405 300.15 215.705 294.1 215.705 286V276.1C215.705 271.4 218.655 269.05 224.555 269.05C230.555 269.05 233.555 271.4 233.555 276.1V284.8C233.555 287.4 234.305 289.75 235.805 291.85C237.305 293.95 239.905 295 243.605 295H268.805C272.505 295 275.105 293.95 276.605 291.85C278.105 289.75 278.855 287.4 278.855 284.8V266.65C278.855 264.15 278.105 261.85 276.605 259.75C275.105 257.55 272.505 256.45 268.805 256.45H239.855C234.655 256.45 229.305 254.55 223.805 250.75C218.405 246.55 215.705 240.5 215.705 232.6V214.75C215.705 210.75 216.405 207.25 217.805 204.25C219.205 201.15 221.205 198.65 223.805 196.75H223.655C226.255 195.05 228.955 193.65 231.755 192.55C234.555 191.45 237.255 190.9 239.855 190.9H272.555C275.155 190.9 277.855 191.45 280.655 192.55C283.455 193.65 286.155 195.05 288.755 196.75H288.605C291.205 198.65 293.205 201.15 294.605 204.25C296.005 207.25 296.705 210.75 296.705 214.75V223.6C296.705 228.3 293.705 230.65 287.705 230.65C281.805 230.65 278.855 228.3 278.855 223.6V216.1C278.855 213.6 278.105 211.3 276.605 209.2C275.105 207.1 272.505 206.05 268.805 206.05H243.605C239.905 206.05 237.305 207.1 235.805 209.2C234.305 211.3 233.555 213.6 233.555 216.1V231.4C233.555 234 234.305 236.35 235.805 238.45C237.305 240.45 239.905 241.45 243.605 241.45H272.555Z" fill="#2DA7CD"/>
<path d="M280.655 243.1L278.827 247.754L278.827 247.754L280.655 243.1ZM288.755 247.45V252.45C290.942 252.45 292.876 251.028 293.528 248.941C294.18 246.853 293.399 244.584 291.601 243.339L288.755 247.45ZM288.605 247.45V242.45C286.418 242.45 284.485 243.872 283.833 245.959C283.18 248.047 283.961 250.316 285.759 251.561L288.605 247.45ZM294.605 254.8L299.162 252.742L299.162 252.742L294.605 254.8ZM288.605 304.15L291.555 308.187C291.564 308.181 291.573 308.174 291.581 308.168L288.605 304.15ZM280.505 308.65L282.242 313.339C282.272 313.327 282.303 313.316 282.333 313.304L280.505 308.65ZM231.755 308.65L229.869 313.28C229.936 313.308 230.005 313.334 230.073 313.359L231.755 308.65ZM223.805 304.15L220.829 308.168C220.838 308.174 220.846 308.181 220.855 308.187L223.805 304.15ZM235.805 291.85L239.874 288.944L239.874 288.944L235.805 291.85ZM276.605 291.85L272.536 288.944L272.536 288.944L276.605 291.85ZM276.605 259.75L272.474 262.567C272.494 262.597 272.515 262.627 272.536 262.656L276.605 259.75ZM223.805 250.75L220.735 254.697C220.81 254.755 220.886 254.81 220.963 254.864L223.805 250.75ZM217.805 204.25L222.336 206.364C222.345 206.346 222.353 206.327 222.362 206.308L217.805 204.25ZM223.805 196.75L226.755 200.787C228.502 199.51 229.23 197.255 228.558 195.198C227.887 193.142 225.969 191.75 223.805 191.75V196.75ZM223.655 196.75L220.919 192.565C219.068 193.775 218.232 196.058 218.863 198.178C219.495 200.297 221.443 201.75 223.655 201.75V196.75ZM231.755 192.55L229.927 187.896L229.927 187.896L231.755 192.55ZM280.655 192.55L282.483 187.896L282.483 187.896L280.655 192.55ZM288.755 196.75V201.75C290.967 201.75 292.916 200.297 293.547 198.178C294.178 196.058 293.342 193.775 291.491 192.565L288.755 196.75ZM288.605 196.75V191.75C286.441 191.75 284.523 193.142 283.852 195.198C283.181 197.255 283.908 199.51 285.655 200.787L288.605 196.75ZM294.605 204.25L290.048 206.308C290.057 206.327 290.065 206.346 290.074 206.364L294.605 204.25ZM276.605 209.2L280.674 206.294L280.674 206.294L276.605 209.2ZM235.805 209.2L231.736 206.294L231.736 206.294L235.805 209.2ZM235.805 238.45L231.736 241.356C231.759 241.388 231.782 241.419 231.805 241.45L235.805 238.45ZM272.555 246.45C274.439 246.45 276.519 246.847 278.827 247.754L282.483 238.446C279.191 237.153 275.871 236.45 272.555 236.45V246.45ZM278.827 247.754C281.25 248.706 283.61 249.969 285.909 251.561L291.601 243.339C288.7 241.331 285.66 239.694 282.483 238.446L278.827 247.754ZM288.755 242.45H288.605V252.45H288.755V242.45ZM285.759 251.561C287.557 252.805 288.992 254.52 290.048 256.858L299.162 252.742C297.418 248.88 294.854 245.695 291.451 243.339L285.759 251.561ZM290.048 256.858C291.109 259.207 291.705 262.036 291.705 265.45H301.705C301.705 260.864 300.901 256.593 299.162 252.742L290.048 256.858ZM291.705 265.45V286H301.705V265.45H291.705ZM291.705 286C291.705 292.882 289.488 297.274 285.629 300.132L291.581 308.168C298.522 303.026 301.705 295.318 301.705 286H291.705ZM285.655 300.113C283.377 301.778 281.051 303.064 278.677 303.996L282.333 313.304C285.559 312.036 288.633 310.322 291.555 308.187L285.655 300.113ZM278.769 303.961C276.565 304.777 274.502 305.15 272.555 305.15V315.15C275.808 315.15 279.045 314.523 282.242 313.339L278.769 303.961ZM272.555 305.15H239.855V315.15H272.555V305.15ZM239.855 305.15C237.904 305.15 235.773 304.776 233.437 303.941L230.073 313.359C233.337 314.524 236.606 315.15 239.855 315.15V305.15ZM233.642 304.02C231.356 303.088 229.06 301.797 226.755 300.113L220.855 308.187C223.75 310.303 226.754 312.012 229.869 313.28L233.642 304.02ZM226.781 300.132C222.922 297.274 220.705 292.882 220.705 286H210.705C210.705 295.318 213.888 303.026 220.829 308.168L226.781 300.132ZM220.705 286V276.1H210.705V286H220.705ZM220.705 276.1C220.705 275.44 220.809 275.092 220.871 274.946C220.919 274.829 220.962 274.78 221.033 274.723C221.246 274.554 222.136 274.05 224.555 274.05V264.05C221.075 264.05 217.54 264.721 214.802 266.902C211.848 269.255 210.705 272.639 210.705 276.1H220.705ZM224.555 274.05C227.039 274.05 227.98 274.56 228.222 274.749C228.303 274.813 228.346 274.865 228.392 274.973C228.451 275.112 228.555 275.449 228.555 276.1H238.555C238.555 272.61 237.379 269.219 234.388 266.876C231.63 264.715 228.071 264.05 224.555 264.05V274.05ZM228.555 276.1V284.8H238.555V276.1H228.555ZM228.555 284.8C228.555 288.434 229.626 291.801 231.736 294.756L239.874 288.944C238.984 287.699 238.555 286.366 238.555 284.8H228.555ZM231.736 294.756C234.538 298.678 239.036 300 243.605 300V290C240.774 290 240.073 289.222 239.874 288.944L231.736 294.756ZM243.605 300H268.805V290H243.605V300ZM268.805 300C273.374 300 277.873 298.678 280.674 294.756L272.536 288.944C272.338 289.222 271.636 290 268.805 290V300ZM280.674 294.756C282.784 291.801 283.855 288.434 283.855 284.8H273.855C273.855 286.366 273.426 287.699 272.536 288.944L280.674 294.756ZM283.855 284.8V266.65H273.855V284.8H283.855ZM283.855 266.65C283.855 263.073 282.759 259.763 280.674 256.844L272.536 262.656C273.452 263.937 273.855 265.227 273.855 266.65H283.855ZM280.736 256.933C277.97 252.876 273.458 251.45 268.805 251.45V261.45C271.552 261.45 272.24 262.224 272.474 262.567L280.736 256.933ZM268.805 251.45H239.855V261.45H268.805V251.45ZM239.855 251.45C235.925 251.45 231.55 250.023 226.647 246.636L220.963 254.864C227.061 259.077 233.385 261.45 239.855 261.45V251.45ZM226.875 246.803C222.891 243.705 220.705 239.227 220.705 232.6H210.705C210.705 241.773 213.919 249.395 220.735 254.697L226.875 246.803ZM220.705 232.6V214.75H210.705V232.6H220.705ZM220.705 214.75C220.705 211.331 221.303 208.579 222.336 206.364L213.274 202.136C211.508 205.921 210.705 210.169 210.705 214.75H220.705ZM222.362 206.308C223.427 203.949 224.892 202.148 226.755 200.787L220.855 192.713C217.518 195.152 214.983 198.351 213.248 202.192L222.362 206.308ZM223.805 191.75H223.655V201.75H223.805V191.75ZM226.391 200.935C228.715 199.416 231.111 198.175 233.583 197.204L229.927 187.896C226.799 189.125 223.795 190.684 220.919 192.565L226.391 200.935ZM233.583 197.204C235.891 196.297 237.971 195.9 239.855 195.9V185.9C236.539 185.9 233.219 186.603 229.927 187.896L233.583 197.204ZM239.855 195.9H272.555V185.9H239.855V195.9ZM272.555 195.9C274.439 195.9 276.519 196.297 278.827 197.204L282.483 187.896C279.191 186.603 275.871 185.9 272.555 185.9V195.9ZM278.827 197.204C281.299 198.175 283.695 199.416 286.019 200.935L291.491 192.565C288.615 190.684 285.611 189.125 282.483 187.896L278.827 197.204ZM288.755 191.75H288.605V201.75H288.755V191.75ZM285.655 200.787C287.518 202.148 288.983 203.949 290.048 206.308L299.162 202.192C297.427 198.351 294.892 195.152 291.555 192.713L285.655 200.787ZM290.074 206.364C291.108 208.579 291.705 211.331 291.705 214.75H301.705C301.705 210.169 300.903 205.921 299.136 202.136L290.074 206.364ZM291.705 214.75V223.6H301.705V214.75H291.705ZM291.705 223.6C291.705 224.251 291.601 224.588 291.542 224.727C291.496 224.835 291.453 224.887 291.372 224.951C291.13 225.14 290.189 225.65 287.705 225.65V235.65C291.221 235.65 294.78 234.985 297.538 232.824C300.529 230.481 301.705 227.09 301.705 223.6H291.705ZM287.705 225.65C285.286 225.65 284.396 225.146 284.183 224.977C284.112 224.92 284.069 224.871 284.021 224.754C283.959 224.608 283.855 224.26 283.855 223.6H273.855C273.855 227.061 274.998 230.445 277.952 232.798C280.69 234.979 284.225 235.65 287.705 235.65V225.65ZM283.855 223.6V216.1H273.855V223.6H283.855ZM283.855 216.1C283.855 212.523 282.759 209.213 280.674 206.294L272.536 212.106C273.452 213.387 273.855 214.677 273.855 216.1H283.855ZM280.674 206.294C277.873 202.372 273.374 201.05 268.805 201.05V211.05C271.636 211.05 272.338 211.828 272.536 212.106L280.674 206.294ZM268.805 201.05H243.605V211.05H268.805V201.05ZM243.605 201.05C239.036 201.05 234.538 202.372 231.736 206.294L239.874 212.106C240.073 211.828 240.774 211.05 243.605 211.05V201.05ZM231.736 206.294C229.652 209.213 228.555 212.523 228.555 216.1H238.555C238.555 214.677 238.959 213.387 239.874 212.106L231.736 206.294ZM228.555 216.1V231.4H238.555V216.1H228.555ZM228.555 231.4C228.555 235.034 229.626 238.401 231.736 241.356L239.874 235.544C238.984 234.299 238.555 232.966 238.555 231.4H228.555ZM231.805 241.45C234.639 245.228 239.119 246.45 243.605 246.45V236.45C240.692 236.45 239.972 235.672 239.805 235.45L231.805 241.45ZM243.605 246.45H272.555V236.45H243.605V246.45Z" fill="black" mask="url(#path-3-outside-1_25_3)"/>
<mask id="path-5-outside-2_25_3" maskUnits="userSpaceOnUse" x="246" y="213" width="23" height="20" fill="black">
<rect fill="white" x="246" y="213" width="23" height="20"/>
<path d="M250.125 230.16C250.125 230.8 249.759 231.12 249.025 231.12C248.279 231.12 247.905 230.8 247.905 230.16V219.84C247.905 219.2 248.279 218.88 249.025 218.88C249.759 218.88 250.125 219.2 250.125 219.84V230.16ZM250.545 216.36C250.545 216.787 250.399 217.147 250.105 217.44C249.812 217.733 249.452 217.88 249.025 217.88C248.599 217.88 248.232 217.733 247.925 217.44C247.632 217.147 247.485 216.787 247.485 216.36C247.485 215.92 247.632 215.553 247.925 215.26C248.232 214.967 248.599 214.82 249.025 214.82C249.452 214.82 249.812 214.967 250.105 215.26C250.399 215.553 250.545 215.92 250.545 216.36ZM259.104 222.3C259.104 222.127 259.078 221.96 259.024 221.8C258.971 221.627 258.904 221.467 258.824 221.32C258.651 221 258.291 220.84 257.744 220.84H256.464C255.918 220.84 255.551 221 255.364 221.32C255.204 221.627 255.124 221.953 255.124 222.3V230.22C255.124 230.847 254.758 231.16 254.024 231.16C253.264 231.16 252.884 230.847 252.884 230.22V222.12C252.884 221.027 253.244 220.227 253.964 219.72C254.698 219.213 255.411 218.96 256.104 218.96H258.124C258.431 218.96 258.771 219.02 259.144 219.14C259.518 219.26 259.878 219.447 260.224 219.7C260.558 219.447 260.904 219.26 261.264 219.14C261.638 219.02 261.991 218.96 262.324 218.96H264.324C265.031 218.96 265.738 219.213 266.444 219.72C267.178 220.213 267.544 221.013 267.544 222.12V230.22C267.544 230.847 267.171 231.16 266.424 231.16C265.678 231.16 265.304 230.847 265.304 230.22V222.3C265.304 222.127 265.284 221.953 265.244 221.78C265.204 221.607 265.131 221.447 265.024 221.3L265.044 221.32C264.938 221.147 264.804 221.027 264.644 220.96C264.484 220.88 264.251 220.84 263.944 220.84H262.684C262.124 220.84 261.758 221 261.584 221.32C261.411 221.613 261.324 221.94 261.324 222.3V230.22C261.324 230.847 260.958 231.16 260.224 231.16C259.478 231.16 259.104 230.847 259.104 230.22V222.3Z"/>
</mask>
<path d="M250.125 230.16C250.125 230.8 249.759 231.12 249.025 231.12C248.279 231.12 247.905 230.8 247.905 230.16V219.84C247.905 219.2 248.279 218.88 249.025 218.88C249.759 218.88 250.125 219.2 250.125 219.84V230.16ZM250.545 216.36C250.545 216.787 250.399 217.147 250.105 217.44C249.812 217.733 249.452 217.88 249.025 217.88C248.599 217.88 248.232 217.733 247.925 217.44C247.632 217.147 247.485 216.787 247.485 216.36C247.485 215.92 247.632 215.553 247.925 215.26C248.232 214.967 248.599 214.82 249.025 214.82C249.452 214.82 249.812 214.967 250.105 215.26C250.399 215.553 250.545 215.92 250.545 216.36ZM259.104 222.3C259.104 222.127 259.078 221.96 259.024 221.8C258.971 221.627 258.904 221.467 258.824 221.32C258.651 221 258.291 220.84 257.744 220.84H256.464C255.918 220.84 255.551 221 255.364 221.32C255.204 221.627 255.124 221.953 255.124 222.3V230.22C255.124 230.847 254.758 231.16 254.024 231.16C253.264 231.16 252.884 230.847 252.884 230.22V222.12C252.884 221.027 253.244 220.227 253.964 219.72C254.698 219.213 255.411 218.96 256.104 218.96H258.124C258.431 218.96 258.771 219.02 259.144 219.14C259.518 219.26 259.878 219.447 260.224 219.7C260.558 219.447 260.904 219.26 261.264 219.14C261.638 219.02 261.991 218.96 262.324 218.96H264.324C265.031 218.96 265.738 219.213 266.444 219.72C267.178 220.213 267.544 221.013 267.544 222.12V230.22C267.544 230.847 267.171 231.16 266.424 231.16C265.678 231.16 265.304 230.847 265.304 230.22V222.3C265.304 222.127 265.284 221.953 265.244 221.78C265.204 221.607 265.131 221.447 265.024 221.3L265.044 221.32C264.938 221.147 264.804 221.027 264.644 220.96C264.484 220.88 264.251 220.84 263.944 220.84H262.684C262.124 220.84 261.758 221 261.584 221.32C261.411 221.613 261.324 221.94 261.324 222.3V230.22C261.324 230.847 260.958 231.16 260.224 231.16C259.478 231.16 259.104 230.847 259.104 230.22V222.3Z" fill="#2DA7CD"/>
<path d="M247.925 217.44L247.218 218.147C247.223 218.152 247.229 218.158 247.234 218.163L247.925 217.44ZM247.925 215.26L247.234 214.537C247.229 214.542 247.223 214.548 247.218 214.553L247.925 215.26ZM250.105 215.26L250.812 214.553L250.812 214.553L250.105 215.26ZM249.125 230.16C249.125 230.227 249.115 230.241 249.122 230.223C249.126 230.213 249.134 230.197 249.147 230.178C249.16 230.159 249.176 230.142 249.193 230.127C249.228 230.096 249.25 230.093 249.227 230.1C249.202 230.107 249.139 230.12 249.025 230.12V232.12C249.515 232.12 250.069 232.016 250.508 231.633C250.972 231.228 251.125 230.672 251.125 230.16H249.125ZM249.025 230.12C248.907 230.12 248.84 230.107 248.81 230.098C248.783 230.091 248.802 230.091 248.836 230.121C248.853 230.135 248.869 230.152 248.882 230.172C248.895 230.191 248.903 230.207 248.907 230.218C248.915 230.237 248.905 230.225 248.905 230.16H246.905C246.905 230.678 247.064 231.236 247.535 231.639C247.976 232.018 248.532 232.12 249.025 232.12V230.12ZM248.905 230.16V219.84H246.905V230.16H248.905ZM248.905 219.84C248.905 219.775 248.915 219.763 248.907 219.782C248.903 219.793 248.895 219.809 248.882 219.828C248.869 219.848 248.853 219.865 248.836 219.879C248.802 219.909 248.783 219.909 248.81 219.902C248.84 219.893 248.907 219.88 249.025 219.88V217.88C248.532 217.88 247.976 217.982 247.535 218.361C247.064 218.764 246.905 219.322 246.905 219.84H248.905ZM249.025 219.88C249.139 219.88 249.202 219.893 249.227 219.9C249.25 219.907 249.228 219.904 249.193 219.873C249.176 219.858 249.16 219.841 249.147 219.822C249.134 219.803 249.126 219.787 249.122 219.777C249.115 219.759 249.125 219.773 249.125 219.84H251.125C251.125 219.328 250.972 218.772 250.508 218.367C250.069 217.984 249.515 217.88 249.025 217.88V219.88ZM249.125 219.84V230.16H251.125V219.84H249.125ZM249.545 216.36C249.545 216.53 249.498 216.633 249.398 216.733L250.812 218.147C251.299 217.66 251.545 217.043 251.545 216.36H249.545ZM249.398 216.733C249.298 216.833 249.195 216.88 249.025 216.88V218.88C249.709 218.88 250.326 218.634 250.812 218.147L249.398 216.733ZM249.025 216.88C248.855 216.88 248.736 216.832 248.617 216.717L247.234 218.163C247.728 218.635 248.343 218.88 249.025 218.88V216.88ZM248.632 216.733C248.533 216.633 248.485 216.53 248.485 216.36H246.485C246.485 217.043 246.731 217.66 247.218 218.147L248.632 216.733ZM248.485 216.36C248.485 216.167 248.539 216.061 248.632 215.967L247.218 214.553C246.725 215.046 246.485 215.673 246.485 216.36H248.485ZM248.617 215.983C248.736 215.868 248.855 215.82 249.025 215.82V213.82C248.343 213.82 247.728 214.065 247.234 214.537L248.617 215.983ZM249.025 215.82C249.195 215.82 249.298 215.867 249.398 215.967L250.812 214.553C250.326 214.066 249.709 213.82 249.025 213.82V215.82ZM249.398 215.967C249.492 216.061 249.545 216.167 249.545 216.36H251.545C251.545 215.673 251.306 215.046 250.812 214.553L249.398 215.967ZM259.024 221.8L258.069 222.094C258.071 222.101 258.073 222.109 258.076 222.116L259.024 221.8ZM258.824 221.32L257.945 221.796L257.946 221.799L258.824 221.32ZM255.364 221.32L254.501 220.816C254.493 220.83 254.485 220.843 254.478 220.857L255.364 221.32ZM253.964 219.72L253.396 218.897L253.389 218.902L253.964 219.72ZM260.224 219.7L259.634 220.507C259.991 220.768 260.477 220.764 260.829 220.496L260.224 219.7ZM261.264 219.14L260.958 218.188L260.948 218.191L261.264 219.14ZM266.444 219.72L265.862 220.533C265.87 220.538 265.878 220.544 265.886 220.55L266.444 219.72ZM265.244 221.78L264.27 222.005L264.27 222.005L265.244 221.78ZM265.024 221.3L265.731 220.593C265.362 220.224 264.772 220.201 264.375 220.54C263.978 220.879 263.909 221.466 264.216 221.888L265.024 221.3ZM265.044 221.32L264.337 222.027C264.696 222.386 265.266 222.419 265.664 222.105C266.062 221.79 266.162 221.228 265.896 220.796L265.044 221.32ZM264.644 220.96L264.197 221.854C264.218 221.865 264.239 221.874 264.26 221.883L264.644 220.96ZM261.584 221.32L262.445 221.829C262.452 221.818 262.458 221.807 262.464 221.796L261.584 221.32ZM260.104 222.3C260.104 222.022 260.061 221.749 259.973 221.484L258.076 222.116C258.094 222.171 258.104 222.231 258.104 222.3H260.104ZM259.98 221.506C259.909 221.274 259.817 221.051 259.702 220.841L257.946 221.799C257.992 221.882 258.033 221.979 258.069 222.094L259.98 221.506ZM259.704 220.844C259.277 220.055 258.455 219.84 257.744 219.84V221.84C257.929 221.84 258.006 221.868 258.018 221.874C258.022 221.875 258.009 221.87 257.99 221.853C257.971 221.836 257.955 221.815 257.945 221.796L259.704 220.844ZM257.744 219.84H256.464V221.84H257.744V219.84ZM256.464 219.84C255.747 219.84 254.943 220.057 254.501 220.816L256.228 221.824C256.22 221.837 256.208 221.853 256.193 221.865C256.179 221.878 256.172 221.88 256.179 221.877C256.199 221.868 256.281 221.84 256.464 221.84V219.84ZM254.478 220.857C254.243 221.307 254.124 221.793 254.124 222.3H256.124C256.124 222.114 256.166 221.946 256.251 221.783L254.478 220.857ZM254.124 222.3V230.22H256.124V222.3H254.124ZM254.124 230.22C254.124 230.281 254.115 230.29 254.124 230.268C254.129 230.256 254.137 230.238 254.151 230.218C254.166 230.198 254.182 230.18 254.2 230.165C254.236 230.134 254.256 230.133 254.232 230.14C254.204 230.147 254.14 230.16 254.024 230.16V232.16C254.51 232.16 255.061 232.06 255.499 231.685C255.967 231.285 256.124 230.732 256.124 230.22H254.124ZM254.024 230.16C253.9 230.16 253.826 230.147 253.791 230.137C253.757 230.128 253.772 230.126 253.806 230.153C253.822 230.167 253.839 230.184 253.853 230.204C253.868 230.225 253.877 230.243 253.883 230.256C253.893 230.283 253.884 230.278 253.884 230.22H251.884C251.884 230.744 252.052 231.3 252.533 231.697C252.977 232.062 253.532 232.16 254.024 232.16V230.16ZM253.884 230.22V222.12H251.884V230.22H253.884ZM253.884 222.12C253.884 221.264 254.151 220.811 254.54 220.538L253.389 218.902C252.338 219.642 251.884 220.79 251.884 222.12H253.884ZM254.533 220.543C255.147 220.119 255.665 219.96 256.104 219.96V217.96C255.157 217.96 254.249 218.308 253.396 218.897L254.533 220.543ZM256.104 219.96H258.124V217.96H256.104V219.96ZM258.124 219.96C258.303 219.96 258.538 219.995 258.838 220.092L259.45 218.188C259.004 218.045 258.559 217.96 258.124 217.96V219.96ZM258.838 220.092C259.101 220.176 259.366 220.311 259.634 220.507L260.814 218.893C260.39 218.582 259.935 218.344 259.45 218.188L258.838 220.092ZM260.829 220.496C261.084 220.302 261.335 220.171 261.581 220.089L260.948 218.191C260.474 218.349 260.031 218.591 259.619 218.904L260.829 220.496ZM261.57 220.092C261.862 219.998 262.111 219.96 262.324 219.96V217.96C261.871 217.96 261.414 218.042 260.958 218.188L261.57 220.092ZM262.324 219.96H264.324V217.96H262.324V219.96ZM264.324 219.96C264.778 219.96 265.285 220.119 265.862 220.533L267.027 218.907C266.19 218.307 265.284 217.96 264.324 217.96V219.96ZM265.886 220.55C266.273 220.81 266.544 221.251 266.544 222.12H268.544C268.544 220.775 268.082 219.617 267.003 218.89L265.886 220.55ZM266.544 222.12V230.22H268.544V222.12H266.544ZM266.544 230.22C266.544 230.279 266.535 230.287 266.545 230.262C266.55 230.249 266.559 230.231 266.573 230.211C266.588 230.191 266.605 230.173 266.622 230.159C266.656 230.13 266.674 230.13 266.645 230.138C266.613 230.147 266.544 230.16 266.424 230.16V232.16C266.913 232.16 267.466 232.061 267.907 231.691C268.382 231.293 268.544 230.738 268.544 230.22H266.544ZM266.424 230.16C266.304 230.16 266.235 230.147 266.204 230.138C266.175 230.13 266.193 230.13 266.227 230.159C266.244 230.173 266.261 230.191 266.275 230.211C266.29 230.231 266.299 230.249 266.304 230.262C266.313 230.287 266.304 230.279 266.304 230.22H264.304C264.304 230.738 264.467 231.293 264.942 231.691C265.382 232.061 265.935 232.16 266.424 232.16V230.16ZM266.304 230.22V222.3H264.304V230.22H266.304ZM266.304 222.3C266.304 222.049 266.275 221.8 266.219 221.555L264.27 222.005C264.293 222.106 264.304 222.204 264.304 222.3H266.304ZM266.219 221.555C266.148 221.248 266.017 220.965 265.833 220.712L264.216 221.888C264.245 221.928 264.261 221.965 264.27 222.005L266.219 221.555ZM264.317 222.007L264.337 222.027L265.751 220.613L265.731 220.593L264.317 222.007ZM265.896 220.796C265.699 220.476 265.415 220.198 265.029 220.037L264.26 221.883C264.232 221.871 264.21 221.856 264.195 221.843C264.182 221.831 264.183 221.828 264.193 221.844L265.896 220.796ZM265.092 220.066C264.727 219.883 264.31 219.84 263.944 219.84V221.84C264.057 221.84 264.133 221.848 264.18 221.856C264.23 221.864 264.228 221.87 264.197 221.854L265.092 220.066ZM263.944 219.84H262.684V221.84H263.944V219.84ZM262.684 219.84C261.973 219.84 261.136 220.048 260.705 220.844L262.464 221.796C262.452 221.818 262.435 221.84 262.415 221.857C262.396 221.874 262.384 221.879 262.389 221.877C262.407 221.869 262.491 221.84 262.684 221.84V219.84ZM260.723 220.811C260.454 221.268 260.324 221.772 260.324 222.3H262.324C262.324 222.108 262.368 221.959 262.445 221.829L260.723 220.811ZM260.324 222.3V230.22H262.324V222.3H260.324ZM260.324 230.22C260.324 230.281 260.315 230.29 260.324 230.268C260.329 230.256 260.337 230.238 260.351 230.218C260.366 230.198 260.382 230.18 260.4 230.165C260.436 230.134 260.456 230.133 260.432 230.14C260.404 230.147 260.34 230.16 260.224 230.16V232.16C260.71 232.16 261.261 232.06 261.699 231.685C262.167 231.285 262.324 230.732 262.324 230.22H260.324ZM260.224 230.16C260.104 230.16 260.035 230.147 260.004 230.138C259.975 230.13 259.993 230.13 260.027 230.159C260.044 230.173 260.061 230.191 260.075 230.211C260.09 230.231 260.099 230.249 260.104 230.262C260.113 230.287 260.104 230.279 260.104 230.22H258.104C258.104 230.738 258.267 231.293 258.742 231.691C259.182 232.061 259.735 232.16 260.224 232.16V230.16ZM260.104 230.22V222.3H258.104V230.22H260.104Z" fill="black" mask="url(#path-5-outside-2_25_3)"/>
<mask id="path-7-outside-3_25_3" maskUnits="userSpaceOnUse" x="245" y="269" width="25" height="16" fill="black">
<rect fill="white" x="245" y="269" width="25" height="16"/>
<path d="M253.152 270.96C253.499 270.96 253.852 271.033 254.212 271.18C254.585 271.327 254.945 271.513 255.292 271.74H255.272C255.619 271.993 255.885 272.327 256.072 272.74C256.259 273.14 256.352 273.607 256.352 274.14V279.82C256.352 280.913 255.992 281.72 255.272 282.24C254.565 282.747 253.859 283 253.152 283H249.952C249.605 283 249.252 282.94 248.892 282.82C248.532 282.7 248.179 282.507 247.832 282.24C247.112 281.733 246.752 280.927 246.752 279.82V274.14C246.752 273.607 246.845 273.14 247.032 272.74C247.219 272.327 247.485 271.993 247.832 271.74H247.812C248.145 271.513 248.499 271.327 248.872 271.18C249.245 271.033 249.605 270.96 249.952 270.96H253.152ZM252.792 281.12C253.285 281.12 253.632 280.98 253.832 280.7C254.045 280.42 254.152 280.12 254.152 279.8V274.16C254.152 273.827 254.045 273.527 253.832 273.26C253.632 272.98 253.285 272.84 252.792 272.84H250.312C249.819 272.84 249.465 272.98 249.252 273.26C249.052 273.527 248.952 273.827 248.952 274.16V279.8C248.952 280.12 249.052 280.42 249.252 280.7C249.465 280.98 249.819 281.12 250.312 281.12H252.792ZM261.081 282.16C261.081 282.8 260.714 283.12 259.981 283.12C259.248 283.12 258.881 282.8 258.881 282.16V274.12C258.881 273.573 258.968 273.1 259.141 272.7C259.314 272.3 259.588 271.973 259.961 271.72C260.668 271.213 261.374 270.96 262.081 270.96H265.301C265.981 270.96 266.688 271.213 267.421 271.72C268.141 272.227 268.501 273.027 268.501 274.12V282.16C268.501 282.8 268.134 283.12 267.401 283.12C266.668 283.12 266.301 282.8 266.301 282.16V274.3C266.301 273.953 266.194 273.62 265.981 273.3L266.001 273.32C265.828 273 265.474 272.84 264.941 272.84H262.441C261.894 272.84 261.534 273 261.361 273.32C261.174 273.6 261.081 273.927 261.081 274.3V282.16Z"/>
</mask>
<path d="M253.152 270.96C253.499 270.96 253.852 271.033 254.212 271.18C254.585 271.327 254.945 271.513 255.292 271.74H255.272C255.619 271.993 255.885 272.327 256.072 272.74C256.259 273.14 256.352 273.607 256.352 274.14V279.82C256.352 280.913 255.992 281.72 255.272 282.24C254.565 282.747 253.859 283 253.152 283H249.952C249.605 283 249.252 282.94 248.892 282.82C248.532 282.7 248.179 282.507 247.832 282.24C247.112 281.733 246.752 280.927 246.752 279.82V274.14C246.752 273.607 246.845 273.14 247.032 272.74C247.219 272.327 247.485 271.993 247.832 271.74H247.812C248.145 271.513 248.499 271.327 248.872 271.18C249.245 271.033 249.605 270.96 249.952 270.96H253.152ZM252.792 281.12C253.285 281.12 253.632 280.98 253.832 280.7C254.045 280.42 254.152 280.12 254.152 279.8V274.16C254.152 273.827 254.045 273.527 253.832 273.26C253.632 272.98 253.285 272.84 252.792 272.84H250.312C249.819 272.84 249.465 272.98 249.252 273.26C249.052 273.527 248.952 273.827 248.952 274.16V279.8C248.952 280.12 249.052 280.42 249.252 280.7C249.465 280.98 249.819 281.12 250.312 281.12H252.792ZM261.081 282.16C261.081 282.8 260.714 283.12 259.981 283.12C259.248 283.12 258.881 282.8 258.881 282.16V274.12C258.881 273.573 258.968 273.1 259.141 272.7C259.314 272.3 259.588 271.973 259.961 271.72C260.668 271.213 261.374 270.96 262.081 270.96H265.301C265.981 270.96 266.688 271.213 267.421 271.72C268.141 272.227 268.501 273.027 268.501 274.12V282.16C268.501 282.8 268.134 283.12 267.401 283.12C266.668 283.12 266.301 282.8 266.301 282.16V274.3C266.301 273.953 266.194 273.62 265.981 273.3L266.001 273.32C265.828 273 265.474 272.84 264.941 272.84H262.441C261.894 272.84 261.534 273 261.361 273.32C261.174 273.6 261.081 273.927 261.081 274.3V282.16Z" fill="#2DA7CD"/>
<path d="M254.212 271.18L253.835 272.106L253.846 272.111L254.212 271.18ZM255.292 271.74V272.74C255.734 272.74 256.124 272.449 256.25 272.026C256.377 271.602 256.209 271.145 255.839 270.903L255.292 271.74ZM255.272 271.74V270.74C254.839 270.74 254.456 271.018 254.321 271.43C254.187 271.841 254.333 272.292 254.682 272.547L255.272 271.74ZM256.072 272.74L255.161 273.152L255.166 273.163L256.072 272.74ZM255.272 282.24L255.855 283.053L255.858 283.051L255.272 282.24ZM248.892 282.82L248.576 283.769L248.576 283.769L248.892 282.82ZM247.832 282.24L248.442 281.447C248.431 281.439 248.419 281.43 248.408 281.422L247.832 282.24ZM247.032 272.74L247.938 273.163L247.943 273.152L247.032 272.74ZM247.832 271.74L248.422 272.547C248.771 272.292 248.917 271.841 248.783 271.43C248.648 271.018 248.265 270.74 247.832 270.74V271.74ZM247.812 271.74L247.25 270.913C246.887 271.16 246.727 271.615 246.856 272.034C246.985 272.454 247.373 272.74 247.812 272.74V271.74ZM248.872 271.18L249.238 272.111L249.238 272.111L248.872 271.18ZM253.832 280.7L253.037 280.094C253.03 280.102 253.024 280.11 253.018 280.119L253.832 280.7ZM253.832 273.26L253.018 273.841C253.029 273.856 253.04 273.871 253.051 273.885L253.832 273.26ZM249.252 273.26L248.457 272.654L248.452 272.66L249.252 273.26ZM249.252 280.7L248.438 281.281C248.444 281.29 248.45 281.298 248.457 281.306L249.252 280.7ZM253.152 271.96C253.355 271.96 253.58 272.002 253.835 272.106L254.589 270.254C254.124 270.064 253.643 269.96 253.152 269.96V271.96ZM253.846 272.111C254.154 272.232 254.453 272.386 254.745 272.577L255.839 270.903C255.437 270.64 255.017 270.422 254.578 270.249L253.846 272.111ZM255.292 270.74H255.272V272.74H255.292V270.74ZM254.682 272.547C254.881 272.693 255.041 272.887 255.161 273.152L256.983 272.328C256.73 271.767 256.356 271.294 255.862 270.933L254.682 272.547ZM255.166 273.163C255.279 273.406 255.352 273.723 255.352 274.14H257.352C257.352 273.49 257.238 272.874 256.978 272.317L255.166 273.163ZM255.352 274.14V279.82H257.352V274.14H255.352ZM255.352 279.82C255.352 280.676 255.085 281.141 254.687 281.429L255.858 283.051C256.899 282.299 257.352 281.151 257.352 279.82H255.352ZM254.689 281.427C254.113 281.841 253.606 282 253.152 282V284C254.112 284 255.018 283.653 255.855 283.053L254.689 281.427ZM253.152 282H249.952V284H253.152V282ZM249.952 282C249.723 282 249.476 281.961 249.208 281.871L248.576 283.769C249.028 283.919 249.488 284 249.952 284V282ZM249.208 281.871C248.969 281.792 248.713 281.656 248.442 281.447L247.222 283.033C247.644 283.357 248.095 283.608 248.576 283.769L249.208 281.871ZM248.408 281.422C248.022 281.151 247.752 280.695 247.752 279.82H245.752C245.752 281.158 246.202 282.316 247.257 283.058L248.408 281.422ZM247.752 279.82V274.14H245.752V279.82H247.752ZM247.752 274.14C247.752 273.723 247.825 273.406 247.938 273.163L246.126 272.317C245.866 272.874 245.752 273.49 245.752 274.14H247.752ZM247.943 273.152C248.063 272.887 248.223 272.693 248.422 272.547L247.242 270.933C246.748 271.294 246.374 271.767 246.121 272.328L247.943 273.152ZM247.832 270.74H247.812V272.74H247.832V270.74ZM248.374 272.567C248.646 272.382 248.934 272.23 249.238 272.111L248.506 270.249C248.063 270.423 247.644 270.645 247.25 270.913L248.374 272.567ZM249.238 272.111C249.513 272.003 249.749 271.96 249.952 271.96V269.96C249.462 269.96 248.978 270.064 248.506 270.249L249.238 272.111ZM249.952 271.96H253.152V269.96H249.952V271.96ZM252.792 282.12C253.459 282.12 254.186 281.926 254.646 281.281L253.018 280.119C253.026 280.108 253.036 280.098 253.045 280.091C253.055 280.084 253.057 280.084 253.048 280.088C253.025 280.097 252.949 280.12 252.792 280.12V282.12ZM254.627 281.306C254.959 280.87 255.152 280.361 255.152 279.8H253.152C253.152 279.879 253.131 279.97 253.037 280.094L254.627 281.306ZM255.152 279.8V274.16H253.152V279.8H255.152ZM255.152 274.16C255.152 273.594 254.964 273.075 254.613 272.635L253.051 273.885C253.126 273.979 253.152 274.06 253.152 274.16H255.152ZM254.646 272.679C254.186 272.034 253.459 271.84 252.792 271.84V273.84C252.949 273.84 253.025 273.863 253.048 273.872C253.057 273.876 253.055 273.876 253.045 273.869C253.036 273.862 253.026 273.852 253.018 273.841L254.646 272.679ZM252.792 271.84H250.312V273.84H252.792V271.84ZM250.312 271.84C249.64 271.84 248.927 272.036 248.457 272.654L250.047 273.866C250.035 273.882 250.024 273.883 250.045 273.875C250.076 273.863 250.156 273.84 250.312 273.84V271.84ZM248.452 272.66C248.122 273.1 247.952 273.61 247.952 274.16H249.952C249.952 274.043 249.982 273.954 250.052 273.86L248.452 272.66ZM247.952 274.16V279.8H249.952V274.16H247.952ZM247.952 279.8C247.952 280.344 248.127 280.845 248.438 281.281L250.066 280.119C249.977 279.995 249.952 279.896 249.952 279.8H247.952ZM248.457 281.306C248.927 281.924 249.64 282.12 250.312 282.12V280.12C250.156 280.12 250.076 280.097 250.045 280.085C250.024 280.077 250.035 280.078 250.047 280.094L248.457 281.306ZM250.312 282.12H252.792V280.12H250.312V282.12ZM259.141 272.7L258.223 272.302L258.223 272.302L259.141 272.7ZM259.961 271.72L260.522 272.547C260.53 272.543 260.537 272.538 260.544 272.533L259.961 271.72ZM267.421 271.72L267.996 270.902L267.989 270.897L267.421 271.72ZM265.981 273.3L266.688 272.593C266.325 272.229 265.745 272.201 265.347 272.527C264.949 272.853 264.864 273.427 265.149 273.855L265.981 273.3ZM266.001 273.32L265.294 274.027C265.645 274.378 266.201 274.419 266.599 274.122C266.997 273.825 267.117 273.28 266.88 272.844L266.001 273.32ZM261.361 273.32L262.193 273.875C262.21 273.849 262.226 273.823 262.24 273.796L261.361 273.32ZM260.081 282.16C260.081 282.227 260.071 282.241 260.078 282.223C260.082 282.213 260.089 282.197 260.102 282.178C260.115 282.159 260.131 282.142 260.148 282.127C260.184 282.096 260.205 282.093 260.183 282.1C260.157 282.107 260.095 282.12 259.981 282.12V284.12C260.471 284.12 261.025 284.016 261.463 283.633C261.928 283.228 262.081 282.672 262.081 282.16H260.081ZM259.981 282.12C259.867 282.12 259.805 282.107 259.779 282.1C259.757 282.093 259.778 282.096 259.813 282.127C259.831 282.142 259.846 282.159 259.86 282.178C259.873 282.197 259.88 282.213 259.884 282.223C259.891 282.241 259.881 282.227 259.881 282.16H257.881C257.881 282.672 258.034 283.228 258.498 283.633C258.937 284.016 259.491 284.12 259.981 284.12V282.12ZM259.881 282.16V274.12H257.881V282.16H259.881ZM259.881 274.12C259.881 273.677 259.951 273.345 260.058 273.098L258.223 272.302C257.984 272.855 257.881 273.47 257.881 274.12H259.881ZM260.058 273.098C260.154 272.878 260.3 272.698 260.522 272.547L259.399 270.893C258.875 271.249 258.475 271.722 258.223 272.302L260.058 273.098ZM260.544 272.533C261.12 272.119 261.627 271.96 262.081 271.96V269.96C261.121 269.96 260.215 270.307 259.378 270.907L260.544 272.533ZM262.081 271.96H265.301V269.96H262.081V271.96ZM265.301 271.96C265.723 271.96 266.235 272.116 266.853 272.543L267.989 270.897C267.14 270.311 266.239 269.96 265.301 269.96V271.96ZM266.845 272.538C267.234 272.811 267.501 273.264 267.501 274.12H269.501C269.501 272.79 269.048 271.642 267.996 270.902L266.845 272.538ZM267.501 274.12V282.16H269.501V274.12H267.501ZM267.501 282.16C267.501 282.227 267.491 282.241 267.498 282.223C267.502 282.213 267.509 282.197 267.522 282.178C267.535 282.159 267.551 282.142 267.568 282.127C267.604 282.096 267.625 282.093 267.603 282.1C267.577 282.107 267.515 282.12 267.401 282.12V284.12C267.891 284.12 268.445 284.016 268.883 283.633C269.348 283.228 269.501 282.672 269.501 282.16H267.501ZM267.401 282.12C267.287 282.12 267.225 282.107 267.199 282.1C267.177 282.093 267.198 282.096 267.233 282.127C267.251 282.142 267.266 282.159 267.28 282.178C267.293 282.197 267.3 282.213 267.304 282.223C267.311 282.241 267.301 282.227 267.301 282.16H265.301C265.301 282.672 265.454 283.228 265.918 283.633C266.357 284.016 266.911 284.12 267.401 284.12V282.12ZM267.301 282.16V274.3H265.301V282.16H267.301ZM267.301 274.3C267.301 273.735 267.123 273.211 266.813 272.745L265.149 273.855C265.265 274.029 265.301 274.172 265.301 274.3H267.301ZM265.274 274.007L265.294 274.027L266.708 272.613L266.688 272.593L265.274 274.007ZM266.88 272.844C266.457 272.063 265.652 271.84 264.941 271.84V273.84C265.115 273.84 265.185 273.867 265.193 273.871C265.195 273.872 265.182 273.866 265.164 273.849C265.145 273.832 265.131 273.813 265.122 273.796L266.88 272.844ZM264.941 271.84H262.441V273.84H264.941V271.84ZM262.441 271.84C261.73 271.84 260.909 272.055 260.482 272.844L262.24 273.796C262.23 273.815 262.214 273.836 262.195 273.853C262.176 273.87 262.164 273.875 262.167 273.874C262.18 273.868 262.257 273.84 262.441 273.84V271.84ZM260.529 272.765C260.221 273.227 260.081 273.752 260.081 274.3H262.081C262.081 274.102 262.128 273.973 262.193 273.875L260.529 272.765ZM260.081 274.3V282.16H262.081V274.3H260.081Z" fill="black" mask="url(#path-7-outside-3_25_3)"/>
</g>
<g filter="url(#filter1_ii_25_3)">
<path d="M243.5 31C215.594 31 187.961 36.4965 162.18 47.1756C136.398 57.8547 112.972 73.5074 93.2398 93.2398C73.5073 112.972 57.8547 136.398 47.1756 162.18C36.4965 187.961 31 215.594 31 243.5L116 243.5C116 226.756 119.298 210.177 125.705 194.708C132.113 179.239 141.504 165.183 153.344 153.344C165.183 141.504 179.239 132.113 194.708 125.705C210.177 119.298 226.756 116 243.5 116L243.5 31Z" fill="#C00F0F"/>
</g>
<g filter="url(#filter2_ii_25_3)">
<path d="M268.5 31C296.406 31 324.039 36.4965 349.82 47.1756C375.602 57.8547 399.028 73.5074 418.76 93.2398C438.493 112.972 454.145 136.398 464.824 162.18C475.504 187.961 481 215.594 481 243.5L396 243.5C396 226.756 392.702 210.177 386.295 194.708C379.887 179.239 370.496 165.183 358.656 153.344C346.817 141.504 332.761 132.113 317.292 125.705C301.823 119.298 285.244 116 268.5 116L268.5 31Z" fill="#48C00F"/>
</g>
<g filter="url(#filter3_ii_25_3)">
<path d="M268.5 481C296.406 481 324.039 475.504 349.82 464.824C375.602 454.145 399.028 438.493 418.76 418.76C438.493 399.028 454.145 375.602 464.824 349.82C475.504 324.039 481 296.406 481 268.5L396 268.5C396 285.244 392.702 301.823 386.295 317.292C379.887 332.761 370.496 346.817 358.656 358.656C346.817 370.496 332.761 379.887 317.292 386.295C301.823 392.702 285.244 396 268.5 396L268.5 481Z" fill="#1D0FC0"/>
</g>
<g filter="url(#filter4_ii_25_3)">
<path d="M243.5 481C215.594 481 187.961 475.504 162.18 464.824C136.398 454.145 112.972 438.493 93.2398 418.76C73.5073 399.028 57.8547 375.602 47.1756 349.82C36.4965 324.039 31 296.406 31 268.5L116 268.5C116 285.244 119.298 301.823 125.705 317.292C132.113 332.761 141.504 346.817 153.344 358.656C165.183 370.496 179.239 379.887 194.708 386.295C210.177 392.702 226.756 396 243.5 396L243.5 481Z" fill="#C0AF0F"/>
</g>
</g>
<defs>
<filter id="filter0_dii_25_3" x="115" y="115" width="282" height="282" filterUnits="userSpaceOnUse" color-interpolation-filters="sRGB">
<feFlood flood-opacity="0" result="BackgroundImageFix"/>
<feColorMatrix in="SourceAlpha" type="matrix" values="0 0 0 0 0 0 0 0 0 0 0 0 0 0 0 0 0 0 127 0" result="hardAlpha"/>
<feOffset/>
<feGaussianBlur stdDeviation="12.5"/>
<feColorMatrix type="matrix" values="0 0 0 0 1 0 0 0 0 1 0 0 0 0 1 0 0 0 0.5 0"/>
<feBlend mode="normal" in2="BackgroundImageFix" result="effect1_dropShadow_25_3"/>
<feBlend mode="normal" in="SourceGraphic" in2="effect1_dropShadow_25_3" result="shape"/>
<feColorMatrix in="SourceAlpha" type="matrix" values="0 0 0 0 0 0 0 0 0 0 0 0 0 0 0 0 0 0 127 0" result="hardAlpha"/>
<feOffset dx="10" dy="10"/>
<feGaussianBlur stdDeviation="7.5"/>
<feComposite in2="hardAlpha" operator="arithmetic" k2="-1" k3="1"/>
<feColorMatrix type="matrix" values="0 0 0 0 0 0 0 0 0 0 0 0 0 0 0 0 0 0 0.25 0"/>
<feBlend mode="normal" in2="shape" result="effect2_innerShadow_25_3"/>
<feColorMatrix in="SourceAlpha" type="matrix" values="0 0 0 0 0 0 0 0 0 0 0 0 0 0 0 0 0 0 127 0" result="hardAlpha"/>
<feOffset dx="-10" dy="-10"/>
<feGaussianBlur stdDeviation="7.5"/>
<feComposite in2="hardAlpha" operator="arithmetic" k2="-1" k3="1"/>
<feColorMatrix type="matrix" values="0 0 0 0 0 0 0 0 0 0 0 0 0 0 0 0 0 0 0.25 0"/>
<feBlend mode="normal" in2="effect2_innerShadow_25_3" result="effect3_innerShadow_25_3"/>
</filter>
<filter id="filter1_ii_25_3" x="21" y="21" width="232.5" height="232.5" filterUnits="userSpaceOnUse" color-interpolation-filters="sRGB">
<feFlood flood-opacity="0" result="BackgroundImageFix"/>
<feBlend mode="normal" in="SourceGraphic" in2="BackgroundImageFix" result="shape"/>
<feColorMatrix in="SourceAlpha" type="matrix" values="0 0 0 0 0 0 0 0 0 0 0 0 0 0 0 0 0 0 127 0" result="hardAlpha"/>
<feOffset dx="10" dy="10"/>
<feGaussianBlur stdDeviation="7.5"/>
<feComposite in2="hardAlpha" operator="arithmetic" k2="-1" k3="1"/>
<feColorMatrix type="matrix" values="0 0 0 0 1 0 0 0 0 1 0 0 0 0 1 0 0 0 0.25 0"/>
<feBlend mode="normal" in2="shape" result="effect1_innerShadow_25_3"/>
<feColorMatrix in="SourceAlpha" type="matrix" values="0 0 0 0 0 0 0 0 0 0 0 0 0 0 0 0 0 0 127 0" result="hardAlpha"/>
<feOffset dx="-10" dy="-10"/>
<feGaussianBlur stdDeviation="7.5"/>
<feComposite in2="hardAlpha" operator="arithmetic" k2="-1" k3="1"/>
<feColorMatrix type="matrix" values="0 0 0 0 0 0 0 0 0 0 0 0 0 0 0 0 0 0 0.25 0"/>
<feBlend mode="normal" in2="effect1_innerShadow_25_3" result="effect2_innerShadow_25_3"/>
</filter>
<filter id="filter2_ii_25_3" x="258.5" y="21" width="232.5" height="232.5" filterUnits="userSpaceOnUse" color-interpolation-filters="sRGB">
<feFlood flood-opacity="0" result="BackgroundImageFix"/>
<feBlend mode="normal" in="SourceGraphic" in2="BackgroundImageFix" result="shape"/>
<feColorMatrix in="SourceAlpha" type="matrix" values="0 0 0 0 0 0 0 0 0 0 0 0 0 0 0 0 0 0 127 0" result="hardAlpha"/>
<feOffset dx="10" dy="10"/>
<feGaussianBlur stdDeviation="7.5"/>
<feComposite in2="hardAlpha" operator="arithmetic" k2="-1" k3="1"/>
<feColorMatrix type="matrix" values="0 0 0 0 1 0 0 0 0 1 0 0 0 0 1 0 0 0 0.25 0"/>
<feBlend mode="normal" in2="shape" result="effect1_innerShadow_25_3"/>
<feColorMatrix in="SourceAlpha" type="matrix" values="0 0 0 0 0 0 0 0 0 0 0 0 0 0 0 0 0 0 127 0" result="hardAlpha"/>
<feOffset dx="-10" dy="-10"/>
<feGaussianBlur stdDeviation="7.5"/>
<feComposite in2="hardAlpha" operator="arithmetic" k2="-1" k3="1"/>
<feColorMatrix type="matrix" values="0 0 0 0 0 0 0 0 0 0 0 0 0 0 0 0 0 0 0.25 0"/>
<feBlend mode="normal" in2="effect1_innerShadow_25_3" result="effect2_innerShadow_25_3"/>
</filter>
<filter id="filter3_ii_25_3" x="258.5" y="258.5" width="232.5" height="232.5" filterUnits="userSpaceOnUse" color-interpolation-filters="sRGB">
<feFlood flood-opacity="0" result="BackgroundImageFix"/>
<feBlend mode="normal" in="SourceGraphic" in2="BackgroundImageFix" result="shape"/>
<feColorMatrix in="SourceAlpha" type="matrix" values="0 0 0 0 0 0 0 0 0 0 0 0 0 0 0 0 0 0 127 0" result="hardAlpha"/>
<feOffset dx="10" dy="10"/>
<feGaussianBlur stdDeviation="7.5"/>
<feComposite in2="hardAlpha" operator="arithmetic" k2="-1" k3="1"/>
<feColorMatrix type="matrix" values="0 0 0 0 1 0 0 0 0 1 0 0 0 0 1 0 0 0 0.25 0"/>
<feBlend mode="normal" in2="shape" result="effect1_innerShadow_25_3"/>
<feColorMatrix in="SourceAlpha" type="matrix" values="0 0 0 0 0 0 0 0 0 0 0 0 0 0 0 0 0 0 127 0" result="hardAlpha"/>
<feOffset dx="-10" dy="-10"/>
<feGaussianBlur stdDeviation="7.5"/>
<feComposite in2="hardAlpha" operator="arithmetic" k2="-1" k3="1"/>
<feColorMatrix type="matrix" values="0 0 0 0 0 0 0 0 0 0 0 0 0 0 0 0 0 0 0.25 0"/>
<feBlend mode="normal" in2="effect1_innerShadow_25_3" result="effect2_innerShadow_25_3"/>
</filter>
<filter id="filter4_ii_25_3" x="21" y="258.5" width="232.5" height="232.5" filterUnits="userSpaceOnUse" color-interpolation-filters="sRGB">
<feFlood flood-opacity="0" result="BackgroundImageFix"/>
<feBlend mode="normal" in="SourceGraphic" in2="BackgroundImageFix" result="shape"/>
<feColorMatrix in="SourceAlpha" type="matrix" values="0 0 0 0 0 0 0 0 0 0 0 0 0 0 0 0 0 0 127 0" result="hardAlpha"/>
<feOffset dx="10" dy="10"/>
<feGaussianBlur stdDeviation="7.5"/>
<feComposite in2="hardAlpha" operator="arithmetic" k2="-1" k3="1"/>
<feColorMatrix type="matrix" values="0 0 0 0 1 0 0 0 0 1 0 0 0 0 1 0 0 0 0.25 0"/>
<feBlend mode="normal" in2="shape" result="effect1_innerShadow_25_3"/>
<feColorMatrix in="SourceAlpha" type="matrix" values="0 0 0 0 0 0 0 0 0 0 0 0 0 0 0 0 0 0 127 0" result="hardAlpha"/>
<feOffset dx="-10" dy="-10"/>
<feGaussianBlur stdDeviation="7.5"/>
<feComposite in2="hardAlpha" operator="arithmetic" k2="-1" k3="1"/>
<feColorMatrix type="matrix" values="0 0 0 0 0 0 0 0 0 0 0 0 0 0 0 0 0 0 0.25 0"/>
<feBlend mode="normal" in2="effect1_innerShadow_25_3" result="effect2_innerShadow_25_3"/>
</filter>
<clipPath id="clip0_25_3">
<rect width="512" height="512" fill="white"/>
</clipPath>
</defs>
</svg>
